<!-- For more settings use the AutoHTML plugin tab ... --> 
 <svg class="carbon-development" width="75" height="75" viewBox="0 0 75 75" fill="none" xmlns="http://www.w3.org/2000/svg">
  	<path d="M18.75 9.375V18.75H9.375V9.375H18.75ZM4.6875 4.6875V23.4375H23.4375V4.6875H4.6875ZM42.1875 16.4062V25.7812H32.8125V16.4062H42.1875ZM28.125 11.7188V30.4688H46.875V11.7188H28.125ZM18.75 37.5V46.875H9.375V37.5H18.75ZM4.6875 32.8125V51.5625H23.4375V32.8125H4.6875Z" fill="#D61426"/>
  	<path d="M51.5625 23.4375V37.5H37.5V51.5625H23.4375V70.3125H70.3125V23.4375H51.5625ZM42.1875 42.1875H51.5625V51.5625H42.1875V42.1875ZM37.5 65.625H28.125V56.25H37.5V65.625ZM51.5625 65.625H42.1875V56.25H51.5625V65.625ZM65.625 65.625H56.25V56.25H65.625V65.625ZM65.625 51.5625H56.25V42.1875H65.625V51.5625ZM56.25 37.5V28.125H65.625V37.5H56.25Z" fill="#D61426"/>
</svg>
