<svg class="arcticons-vsphere-mobile-client" width="75" height="75" viewBox="0 0 75 75" fill="none" xmlns="http://www.w3.org/2000/svg">
<path d="M49.3187 27.0625V11.1375C49.3155 10.0495 48.8818 9.00694 48.1124 8.23758C47.3431 7.46823 46.3005 7.03455 45.2125 7.03125H18.5047C17.4167 7.03455 16.3741 7.46823 15.6048 8.23758C14.8354 9.00694 14.4017 10.0495 14.3984 11.1375V63.8625C14.4017 64.9505 14.8354 65.9931 15.6048 66.7624C16.3741 67.5318 17.4167 67.9655 18.5047 67.9688H45.2125C46.3005 67.9655 47.3431 67.5318 48.1124 66.7624C48.8818 65.9931 49.3155 64.9505 49.3187 63.8625V61.2156" stroke="#D61426" stroke-width="2.5" stroke-linecap="round" stroke-linejoin="round"/>
<path d="M46.9324 57.5531C54.2442 57.5531 60.1715 51.6258 60.1715 44.3141C60.1715 37.0023 54.2442 31.075 46.9324 31.075C39.6207 31.075 33.6934 37.0023 33.6934 44.3141C33.6934 51.6258 39.6207 57.5531 46.9324 57.5531Z" stroke="#D61426" stroke-width="2.5" stroke-linecap="round" stroke-linejoin="round"/>
<path d="M60.602 61.5984L54.8941 54.8859M28.2145 12.5578H35.5051M18.6973 28.2906H23.6098L26.141 32.9719L29.4426 22.2266L31.4379 28.2906H35.8879" stroke="#D61426" stroke-width="2.5" stroke-linecap="round" stroke-linejoin="round"/>
<path d="M31.8598 63.8937C32.8729 63.8937 33.6941 63.0724 33.6941 62.0594C33.6941 61.0463 32.8729 60.225 31.8598 60.225C30.8467 60.225 30.0254 61.0463 30.0254 62.0594C30.0254 63.0724 30.8467 63.8937 31.8598 63.8937Z" stroke="#D61426" stroke-width="2.5" stroke-linecap="round" stroke-linejoin="round"/>
</svg>