<!-- For more settings use the AutoHTML plugin tab ... --> 
 <svg class="carbon-communication-unified" width="74" height="74" viewBox="0 0 74 74" fill="none" xmlns="http://www.w3.org/2000/svg">
  	<path d="M64.75 39.3125H41.625C40.3988 39.3137 39.2231 39.8014 38.356 40.6685C37.4889 41.5356 37.0012 42.7113 37 43.9375V57.8125C37.0012 59.0387 37.4889 60.2144 38.356 61.0815C39.2231 61.9486 40.3988 62.4363 41.625 62.4375H50.875V57.8125H41.625V43.9375H64.75V57.8125H58.8878L52.8892 66.8081L56.7372 69.375L61.3622 62.4375H64.75C65.9762 62.4363 67.1519 61.9486 68.019 61.0815C68.8861 60.2144 69.3738 59.0387 69.375 57.8125V43.9375C69.3738 42.7113 68.8861 41.5356 68.019 40.6685C67.1519 39.8014 65.9762 39.3137 64.75 39.3125ZM20.0424 55.7521L22.0335 53.7587C22.3003 53.492 22.6395 53.3095 23.0091 53.2339C23.3787 53.1582 23.7623 53.1928 24.1124 53.3332L26.5406 54.3044C26.8976 54.4476 27.2036 54.6943 27.4191 55.0129C27.6347 55.3315 27.7499 55.7073 27.75 56.092V60.5042C27.7507 60.7666 27.6978 61.0264 27.5946 61.2676C27.4913 61.5088 27.3399 61.7263 27.1496 61.9069C26.9592 62.0875 26.734 62.2273 26.4877 62.3177C26.2414 62.4082 25.9793 62.4474 25.7173 62.4329C8.71119 61.3761 5.27481 46.9715 4.63888 41.4539C4.60823 41.1843 4.63492 40.9114 4.7172 40.6529C4.79948 40.3944 4.93549 40.1563 5.11631 39.954C5.29712 39.7518 5.51865 39.5901 5.76636 39.4796C6.01407 39.369 6.28236 39.3121 6.55363 39.3125H10.8873C11.2725 39.3126 11.6489 39.4281 11.9679 39.6441C12.2869 39.86 12.5339 40.1666 12.6771 40.5243L13.6484 42.9524C13.7883 43.3022 13.8226 43.6854 13.747 44.0545C13.6713 44.4236 13.4891 44.7624 13.2229 45.029L11.2295 47.0201C11.5757 49.2245 12.6172 51.2607 14.2022 52.8316C15.7872 54.4024 17.8349 55.4256 20.0424 55.7521ZM48.5625 20.8125H64.75V25.4375H48.5625V20.8125ZM48.5625 11.5625H69.375V16.1875H48.5625V11.5625ZM39.3125 13.875L32.375 18.9625V13.875C32.3738 12.6487 31.8861 11.4731 31.019 10.606C30.1519 9.73889 28.9762 9.25122 27.75 9.25H9.25C8.02375 9.25122 6.84807 9.73889 5.98098 10.606C5.11389 11.4731 4.62622 12.6487 4.625 13.875V27.75C4.62622 28.9762 5.11389 30.1519 5.98098 31.019C6.84807 31.8861 8.02375 32.3738 9.25 32.375H27.75C28.9762 32.3738 30.1519 31.8861 31.019 31.019C31.8861 30.1519 32.3738 28.9762 32.375 27.75V22.6625L39.3125 27.75V13.875ZM9.25 27.75V13.875H27.75V27.75H9.25Z" fill="#D61426"/>
</svg>
